<svg width="42" height="42" viewBox="0 0 42 42" fill="none" xmlns="http://www.w3.org/2000/svg">
<g filter="url(#filter0_d_47_12046)">
<g clip-path="url(#clip0_47_12046)">
<g filter="url(#filter1_f_47_12046)">
<circle cx="40.1578" cy="50.5269" r="48.2105" fill="#D45050"/>
</g>
<g filter="url(#filter2_f_47_12046)">
<path fill-rule="evenodd" clip-rule="evenodd" d="M18.517 14.2792C19.8332 13.5495 20.9977 13.1456 22.6243 13.6976C24.2871 14.2619 24.9647 15.3646 25.6336 16.7426C25.7066 16.8931 25.7799 17.0484 25.8548 17.2071C26.4581 18.4853 27.1687 19.991 28.7228 21.0515C30.0957 21.9885 30.3935 23.0532 30.2318 23.8254C30.0632 24.6302 29.3377 25.4241 28.0772 25.6818C26.6693 25.9697 25.3199 26.6695 24.1203 27.2915C23.9614 27.3739 23.805 27.455 23.6516 27.5336C22.2707 28.2403 21.1442 28.7307 20.1238 28.6532C18.6611 28.5421 17.8395 27.9546 16.9435 27.0375C16.7135 26.802 16.4728 26.5366 16.213 26.25C15.4574 25.4167 14.5399 24.4048 13.2504 23.4312C11.8108 22.3442 11.3491 20.7519 11.5314 19.3601C11.7192 17.9269 12.5514 16.8574 13.5606 16.6245C15.2068 16.2446 16.5259 15.4567 17.6484 14.7862C17.9514 14.6052 18.2401 14.4327 18.517 14.2792ZM16.8337 13.5307C15.7361 14.1842 14.6621 14.8236 13.2507 15.1493C11.4778 15.5584 10.3462 17.3023 10.1035 19.1546C9.85538 21.0483 10.4964 23.2135 12.4079 24.6568C13.5784 25.5406 14.3577 26.4 15.0929 27.2107C15.3741 27.5208 15.6488 27.8237 15.9364 28.1182C16.9793 29.1856 18.1034 30.0143 20.0197 30.1598C21.4856 30.2712 22.9534 29.572 24.2841 28.8909C24.4447 28.8087 24.6042 28.7262 24.7627 28.6443C25.985 28.0124 27.149 27.4107 28.3532 27.1644C30.0474 26.818 31.3217 25.667 31.6396 24.1493C31.9643 22.599 31.2352 20.9635 29.5093 19.7857C28.3039 18.9631 27.7668 17.8357 27.1484 16.5377C27.0733 16.3801 26.997 16.22 26.9182 16.0577C26.1981 14.5742 25.2903 13.0145 23.0683 12.2605C20.9114 11.5285 19.3194 12.1253 17.843 12.944C17.4978 13.1353 17.1647 13.3337 16.8337 13.5307Z" fill="url(#paint0_linear_47_12046)" fill-opacity="0.6"/>
</g>
<g filter="url(#filter3_f_47_12046)">
<path fill-rule="evenodd" clip-rule="evenodd" d="M23.2506 25.3661C21.9345 26.0958 20.7699 26.4997 19.1433 25.9477C17.4806 25.3834 16.803 24.2807 16.1341 22.9027C16.061 22.7522 15.9878 22.5969 15.9128 22.4381C15.3096 21.16 14.5989 19.6543 13.0449 18.5937C11.6719 17.6568 11.3741 16.5921 11.5358 15.8199C11.7044 15.0151 12.4299 14.2212 13.6904 13.9634C15.0983 13.6755 16.4478 12.9758 17.6473 12.3538C17.8063 12.2713 17.9626 12.1903 18.1161 12.1117C19.4969 11.4049 20.6234 10.9146 21.6438 10.992C23.1065 11.1031 23.9282 11.6906 24.8241 12.6077C25.0542 12.8432 25.2949 13.1087 25.5547 13.3952C26.3102 14.2285 27.2278 15.2405 28.5173 16.2141C29.9568 17.301 30.4186 18.8933 30.2362 20.2852C30.0484 21.7184 29.2162 22.7879 28.207 23.0208C26.5609 23.4006 25.2417 24.1886 24.1193 24.8591C23.8163 25.0401 23.5275 25.2125 23.2506 25.3661ZM24.9339 26.1145C26.0315 25.4611 27.1056 24.8217 28.517 24.496C30.2898 24.0869 31.4214 22.3429 31.6641 20.4907C31.9123 18.597 31.2713 16.4317 29.3598 14.9885C28.1893 14.1047 27.4099 13.2453 26.6748 12.4345C26.3936 12.1245 26.1189 11.8215 25.8312 11.5271C24.7884 10.4596 23.6642 9.63095 21.748 9.48542C20.2821 9.37409 18.8142 10.0733 17.4836 10.7544C17.3229 10.8366 17.1634 10.919 17.005 11.0009C15.7826 11.6328 14.6186 12.2346 13.4144 12.4808C11.7202 12.8273 10.4459 13.9783 10.128 15.496C9.80334 17.0463 10.5324 18.6817 12.2584 19.8596C13.4638 20.6822 14.0009 21.8096 14.6193 23.1076C14.6944 23.2651 14.7706 23.4252 14.8494 23.5876C15.5695 25.0711 16.4774 26.6307 18.6993 27.3848C20.8562 28.1168 22.4482 27.5199 23.9246 26.7013C24.2698 26.5099 24.6029 26.3116 24.9339 26.1145Z" fill="url(#paint1_linear_47_12046)" fill-opacity="0.6"/>
</g>
<g filter="url(#filter4_i_47_12046)">
<circle cx="20.884" cy="19.6909" r="9.1648" fill="#000126"/>
<circle cx="20.884" cy="19.6909" r="9.1648" fill="url(#paint2_linear_47_12046)"/>
<circle cx="20.884" cy="19.6909" r="9.1648" fill="url(#paint3_radial_47_12046)"/>
</g>
<circle cx="20.884" cy="19.6909" r="8.53323" stroke="url(#paint4_linear_47_12046)" stroke-width="1.26316"/>
<g filter="url(#filter5_f_47_12046)">
<ellipse cx="15.9878" cy="12.7966" rx="3.09258" ry="0.690123" transform="rotate(-35.5079 15.9878 12.7966)" fill="url(#paint5_radial_47_12046)"/>
</g>
<g filter="url(#filter6_f_47_12046)">
<ellipse cx="15.8363" cy="12.6442" rx="1.33877" ry="0.298753" transform="rotate(-35.5079 15.8363 12.6442)" fill="white" fill-opacity="0.6"/>
</g>
<g filter="url(#filter7_d_47_12046)">
<rect x="17.1567" y="15.6133" width="1.75403" height="3.42036" rx="0.877015" fill="url(#paint6_linear_47_12046)"/>
<rect x="17.262" y="15.7185" width="1.5435" height="3.20983" rx="0.771752" stroke="url(#paint7_linear_47_12046)" stroke-width="0.210526"/>
</g>
<g filter="url(#filter8_d_47_12046)">
<rect x="22.682" y="15.6133" width="1.75403" height="3.42036" rx="0.877015" fill="url(#paint8_linear_47_12046)"/>
<rect x="22.7873" y="15.7185" width="1.5435" height="3.20983" rx="0.771752" stroke="url(#paint9_linear_47_12046)" stroke-width="0.210526"/>
</g>
<g filter="url(#filter9_d_47_12046)">
<rect x="22.1558" y="19.6475" width="0.964716" height="2.63104" rx="0.482358" transform="rotate(90 22.1558 19.6475)" fill="url(#paint10_linear_47_12046)"/>
<rect x="22.0505" y="19.7527" width="0.75419" height="2.42052" rx="0.377095" transform="rotate(90 22.0505 19.7527)" stroke="url(#paint11_linear_47_12046)" stroke-width="0.210526"/>
</g>
</g>
<path d="M5.21053 7.36842C5.21053 5.62436 6.62436 4.21053 8.36842 4.21053H33.6316C35.3756 4.21053 36.7895 5.62436 36.7895 7.36842V32.6316C36.7895 34.3756 35.3756 35.7895 33.6316 35.7895H8.36842C6.62436 35.7895 5.21053 34.3756 5.21053 32.6316V7.36842Z" stroke="#E8E9EC" stroke-width="0.421053" shape-rendering="crispEdges"/>
</g>
<defs>
<filter id="filter0_d_47_12046" x="0.789474" y="0.631579" width="40.4211" height="40.4211" filterUnits="userSpaceOnUse" color-interpolation-filters="sRGB">
<feFlood flood-opacity="0" result="BackgroundImageFix"/>
<feColorMatrix in="SourceAlpha" type="matrix" values="0 0 0 0 0 0 0 0 0 0 0 0 0 0 0 0 0 0 127 0" result="hardAlpha"/>
<feOffset dy="0.842105"/>
<feGaussianBlur stdDeviation="2.10526"/>
<feComposite in2="hardAlpha" operator="out"/>
<feColorMatrix type="matrix" values="0 0 0 0 0 0 0 0 0 0 0 0 0 0 0 0 0 0 0.25 0"/>
<feBlend mode="normal" in2="BackgroundImageFix" result="effect1_dropShadow_47_12046"/>
<feBlend mode="normal" in="SourceGraphic" in2="effect1_dropShadow_47_12046" result="shape"/>
</filter>
<filter id="filter1_f_47_12046" x="-33.3159" y="-22.9468" width="146.947" height="146.947" filterUnits="userSpaceOnUse" color-interpolation-filters="sRGB">
<feFlood flood-opacity="0" result="BackgroundImageFix"/>
<feBlend mode="normal" in="SourceGraphic" in2="BackgroundImageFix" result="shape"/>
<feGaussianBlur stdDeviation="12.6316" result="effect1_foregroundBlur_47_12046"/>
</filter>
<filter id="filter2_f_47_12046" x="3.73676" y="5.6139" width="34.2939" height="30.8735" filterUnits="userSpaceOnUse" color-interpolation-filters="sRGB">
<feFlood flood-opacity="0" result="BackgroundImageFix"/>
<feBlend mode="normal" in="SourceGraphic" in2="BackgroundImageFix" result="shape"/>
<feGaussianBlur stdDeviation="3.15789" result="effect1_foregroundBlur_47_12046"/>
</filter>
<filter id="filter3_f_47_12046" x="3.73701" y="3.15784" width="34.2939" height="30.8735" filterUnits="userSpaceOnUse" color-interpolation-filters="sRGB">
<feFlood flood-opacity="0" result="BackgroundImageFix"/>
<feBlend mode="normal" in="SourceGraphic" in2="BackgroundImageFix" result="shape"/>
<feGaussianBlur stdDeviation="3.15789" result="effect1_foregroundBlur_47_12046"/>
</filter>
<filter id="filter4_i_47_12046" x="11.7192" y="10.5261" width="18.3296" height="18.3296" filterUnits="userSpaceOnUse" color-interpolation-filters="sRGB">
<feFlood flood-opacity="0" result="BackgroundImageFix"/>
<feBlend mode="normal" in="SourceGraphic" in2="BackgroundImageFix" result="shape"/>
<feColorMatrix in="SourceAlpha" type="matrix" values="0 0 0 0 0 0 0 0 0 0 0 0 0 0 0 0 0 0 127 0" result="hardAlpha"/>
<feMorphology radius="1.68421" operator="erode" in="SourceAlpha" result="effect1_innerShadow_47_12046"/>
<feOffset/>
<feGaussianBlur stdDeviation="0.842105"/>
<feComposite in2="hardAlpha" operator="arithmetic" k2="-1" k3="1"/>
<feColorMatrix type="matrix" values="0 0 0 0 1 0 0 0 0 1 0 0 0 0 1 0 0 0 0.25 0"/>
<feBlend mode="normal" in2="shape" result="effect1_innerShadow_47_12046"/>
</filter>
<filter id="filter5_f_47_12046" x="7.12244" y="4.59827" width="17.7306" height="16.3966" filterUnits="userSpaceOnUse" color-interpolation-filters="sRGB">
<feFlood flood-opacity="0" result="BackgroundImageFix"/>
<feBlend mode="normal" in="SourceGraphic" in2="BackgroundImageFix" result="shape"/>
<feGaussianBlur stdDeviation="3.15789" result="effect1_foregroundBlur_47_12046"/>
</filter>
<filter id="filter6_f_47_12046" x="11.3642" y="8.4608" width="8.94424" height="8.36673" filterUnits="userSpaceOnUse" color-interpolation-filters="sRGB">
<feFlood flood-opacity="0" result="BackgroundImageFix"/>
<feBlend mode="normal" in="SourceGraphic" in2="BackgroundImageFix" result="shape"/>
<feGaussianBlur stdDeviation="1.68421" result="effect1_foregroundBlur_47_12046"/>
</filter>
<filter id="filter7_d_47_12046" x="14.6304" y="13.087" width="6.80666" height="8.47304" filterUnits="userSpaceOnUse" color-interpolation-filters="sRGB">
<feFlood flood-opacity="0" result="BackgroundImageFix"/>
<feColorMatrix in="SourceAlpha" type="matrix" values="0 0 0 0 0 0 0 0 0 0 0 0 0 0 0 0 0 0 127 0" result="hardAlpha"/>
<feMorphology radius="0.842105" operator="dilate" in="SourceAlpha" result="effect1_dropShadow_47_12046"/>
<feOffset/>
<feGaussianBlur stdDeviation="0.842105"/>
<feComposite in2="hardAlpha" operator="out"/>
<feColorMatrix type="matrix" values="0 0 0 0 1 0 0 0 0 1 0 0 0 0 1 0 0 0 0.25 0"/>
<feBlend mode="normal" in2="BackgroundImageFix" result="effect1_dropShadow_47_12046"/>
<feBlend mode="normal" in="SourceGraphic" in2="effect1_dropShadow_47_12046" result="shape"/>
</filter>
<filter id="filter8_d_47_12046" x="20.1557" y="13.087" width="6.80666" height="8.47304" filterUnits="userSpaceOnUse" color-interpolation-filters="sRGB">
<feFlood flood-opacity="0" result="BackgroundImageFix"/>
<feColorMatrix in="SourceAlpha" type="matrix" values="0 0 0 0 0 0 0 0 0 0 0 0 0 0 0 0 0 0 127 0" result="hardAlpha"/>
<feMorphology radius="0.842105" operator="dilate" in="SourceAlpha" result="effect1_dropShadow_47_12046"/>
<feOffset/>
<feGaussianBlur stdDeviation="0.842105"/>
<feComposite in2="hardAlpha" operator="out"/>
<feColorMatrix type="matrix" values="0 0 0 0 1 0 0 0 0 1 0 0 0 0 1 0 0 0 0.25 0"/>
<feBlend mode="normal" in2="BackgroundImageFix" result="effect1_dropShadow_47_12046"/>
<feBlend mode="normal" in="SourceGraphic" in2="effect1_dropShadow_47_12046" result="shape"/>
</filter>
<filter id="filter9_d_47_12046" x="16.9984" y="17.1211" width="7.68367" height="6.01735" filterUnits="userSpaceOnUse" color-interpolation-filters="sRGB">
<feFlood flood-opacity="0" result="BackgroundImageFix"/>
<feColorMatrix in="SourceAlpha" type="matrix" values="0 0 0 0 0 0 0 0 0 0 0 0 0 0 0 0 0 0 127 0" result="hardAlpha"/>
<feMorphology radius="0.842105" operator="dilate" in="SourceAlpha" result="effect1_dropShadow_47_12046"/>
<feOffset/>
<feGaussianBlur stdDeviation="0.842105"/>
<feComposite in2="hardAlpha" operator="out"/>
<feColorMatrix type="matrix" values="0 0 0 0 1 0 0 0 0 1 0 0 0 0 1 0 0 0 0.25 0"/>
<feBlend mode="normal" in2="BackgroundImageFix" result="effect1_dropShadow_47_12046"/>
<feBlend mode="normal" in="SourceGraphic" in2="effect1_dropShadow_47_12046" result="shape"/>
</filter>
<linearGradient id="paint0_linear_47_12046" x1="20.8837" y1="11.9297" x2="20.8837" y2="30.1716" gradientUnits="userSpaceOnUse">
<stop stop-color="white" stop-opacity="0"/>
<stop offset="0.5" stop-color="#0066FF"/>
<stop offset="1" stop-color="#CDE1FF" stop-opacity="0"/>
</linearGradient>
<linearGradient id="paint1_linear_47_12046" x1="20.8839" y1="27.7156" x2="20.8839" y2="9.47367" gradientUnits="userSpaceOnUse">
<stop stop-color="white" stop-opacity="0"/>
<stop offset="0.5" stop-color="#FFE203"/>
<stop offset="1" stop-color="#CDE1FF" stop-opacity="0"/>
</linearGradient>
<linearGradient id="paint2_linear_47_12046" x1="13.5171" y1="10.5261" x2="22.4188" y2="23.5059" gradientUnits="userSpaceOnUse">
<stop stop-color="white" stop-opacity="0.8"/>
<stop offset="0.13" stop-color="white" stop-opacity="0.47501"/>
<stop offset="1" stop-opacity="0"/>
</linearGradient>
<radialGradient id="paint3_radial_47_12046" cx="0" cy="0" r="1" gradientUnits="userSpaceOnUse" gradientTransform="translate(11.7192 3.94851) rotate(60.2451) scale(31.0133)">
<stop offset="0.713635" stop-color="#122E4E" stop-opacity="0"/>
<stop offset="0.865" stop-color="#FF171B" stop-opacity="0.52"/>
<stop offset="1" stop-color="#122E4E" stop-opacity="0"/>
</radialGradient>
<linearGradient id="paint4_linear_47_12046" x1="14.6985" y1="12.9226" x2="27.5228" y2="25.9411" gradientUnits="userSpaceOnUse">
<stop stop-color="white"/>
<stop offset="0.529" stop-color="#BD6868"/>
<stop offset="1" stop-color="white"/>
</linearGradient>
<radialGradient id="paint5_radial_47_12046" cx="0" cy="0" r="1" gradientUnits="userSpaceOnUse" gradientTransform="translate(15.9878 12.7966) scale(4.03687 0.900847)">
<stop stop-color="white"/>
<stop offset="1" stop-color="white" stop-opacity="0"/>
</radialGradient>
<linearGradient id="paint6_linear_47_12046" x1="18.0338" y1="16.0633" x2="18.0338" y2="18.8086" gradientUnits="userSpaceOnUse">
<stop stop-color="white"/>
<stop offset="1" stop-color="#4D7194"/>
</linearGradient>
<linearGradient id="paint7_linear_47_12046" x1="18.0338" y1="15.6133" x2="18.0338" y2="19.0336" gradientUnits="userSpaceOnUse">
<stop stop-color="#4B798D"/>
<stop offset="1" stop-color="#81D1F3"/>
</linearGradient>
<linearGradient id="paint8_linear_47_12046" x1="23.559" y1="16.0633" x2="23.559" y2="18.8086" gradientUnits="userSpaceOnUse">
<stop stop-color="white"/>
<stop offset="1" stop-color="#4D7194"/>
</linearGradient>
<linearGradient id="paint9_linear_47_12046" x1="23.559" y1="15.6133" x2="23.559" y2="19.0336" gradientUnits="userSpaceOnUse">
<stop stop-color="#4B798D"/>
<stop offset="1" stop-color="#81D1F3"/>
</linearGradient>
<linearGradient id="paint10_linear_47_12046" x1="21.9804" y1="21.0495" x2="23.0328" y2="21.0495" gradientUnits="userSpaceOnUse">
<stop stop-color="white"/>
<stop offset="1" stop-color="#4D7194"/>
</linearGradient>
<linearGradient id="paint11_linear_47_12046" x1="22.1558" y1="20.963" x2="23.1205" y2="20.963" gradientUnits="userSpaceOnUse">
<stop stop-color="#4B798D"/>
<stop offset="1" stop-color="#81D1F3"/>
</linearGradient>
<clipPath id="clip0_47_12046">
<path d="M5 7.36842C5 5.50809 6.50809 4 8.36842 4H33.6316C35.4919 4 37 5.50809 37 7.36842V32.6316C37 34.4919 35.4919 36 33.6316 36H8.36842C6.50809 36 5 34.4919 5 32.6316V7.36842Z" fill="white"/>
</clipPath>
</defs>
</svg>
