<svg xmlns="http://www.w3.org/2000/svg" width="24" height="24" viewBox="0 0 24 24" fill="none">
  <mask id="mask0_109_42" style="mask-type:alpha" maskUnits="userSpaceOnUse" x="0" y="0" width="24" height="24">
    <rect width="24" height="24" fill="#D9D9D9"/>
  </mask>
  <g mask="url(#mask0_109_42)">
    <path d="M9.69225 21.5L9.3115 18.4538C9.04367 18.3641 8.769 18.2385 8.4875 18.077C8.20617 17.9153 7.95459 17.7422 7.73275 17.5577L4.9115 18.75L2.604 14.75L5.04425 12.9058C5.02125 12.7571 5.00492 12.6077 4.99525 12.4578C4.98559 12.3078 4.98075 12.1583 4.98075 12.0095C4.98075 11.8673 4.98559 11.7228 4.99525 11.576C5.00492 11.4292 5.02125 11.2686 5.04425 11.0943L2.604 9.25L4.9115 5.26925L7.723 6.452C7.96417 6.261 8.22159 6.08633 8.49525 5.928C8.76892 5.76967 9.03784 5.64242 9.302 5.54625L9.69225 2.5H14.3078L14.6885 5.55575C14.9885 5.66475 15.2599 5.792 15.5028 5.9375C15.7458 6.083 15.991 6.2545 16.2385 6.452L19.0885 5.26925L21.396 9.25L18.9173 11.123C18.9531 11.2845 18.9727 11.4355 18.976 11.576C18.9792 11.7163 18.9808 11.8577 18.9808 12C18.9808 12.1358 18.9775 12.274 18.971 12.4145C18.9647 12.5548 18.9417 12.7154 18.902 12.8963L21.3615 14.75L19.0538 18.75L16.2385 17.548C15.991 17.7455 15.7384 17.9202 15.4808 18.072C15.2231 18.224 14.959 18.3481 14.6885 18.4443L14.3078 21.5H9.69225ZM12.0115 15C12.8435 15 13.5515 14.708 14.1355 14.124C14.7195 13.54 15.0115 12.832 15.0115 12C15.0115 11.168 14.7195 10.46 14.1355 9.876C13.5515 9.292 12.8435 9 12.0115 9C11.1692 9 10.4586 9.292 9.87975 9.876C9.30092 10.46 9.0115 11.168 9.0115 12C9.0115 12.832 9.30092 13.54 9.87975 14.124C10.4586 14.708 11.1692 15 12.0115 15Z" fill="url(#paint0_linear_109_42)"/>
  </g>
  <defs>
    <linearGradient id="paint0_linear_109_42" x1="2.5" y1="11.7692" x2="21.5" y2="11.7692" gradientUnits="userSpaceOnUse">
      <stop stop-color="#7B40D6"/>
      <stop offset="1" stop-color="#248AFE"/>
    </linearGradient>
  </defs>
</svg>
