<svg width="24" height="24" viewBox="0 0 24 24" fill="none" xmlns="http://www.w3.org/2000/svg">
<mask id="mask0_24_5100" style="mask-type:alpha" maskUnits="userSpaceOnUse" x="0" y="0" width="24" height="24">
<rect width="24" height="24" fill="#D9D9D9"/>
</mask>
<g mask="url(#mask0_24_5100)">
<path d="M5.30775 20.5C4.80258 20.5 4.375 20.325 4.025 19.975C3.675 19.625 3.5 19.1974 3.5 18.6923V5.30775C3.5 4.80258 3.675 4.375 4.025 4.025C4.375 3.675 4.80258 3.5 5.30775 3.5H18.6923C19.1974 3.5 19.625 3.675 19.975 4.025C20.325 4.375 20.5 4.80258 20.5 5.30775V18.6923C20.5 19.1974 20.325 19.625 19.975 19.975C19.625 20.325 19.1974 20.5 18.6923 20.5H5.30775ZM19 7.673L13.0848 14.3L9.748 10.9635C9.56733 10.7827 9.3565 10.6923 9.1155 10.6923C8.87433 10.6923 8.66342 10.7827 8.48275 10.9635L5 14.4462V16.5845L9.1155 12.4692L12.473 15.827C12.6538 16.0077 12.8741 16.0954 13.1337 16.0903C13.3932 16.0852 13.6083 15.984 13.7788 15.7865L19 9.923V7.673Z" fill="url(#paint0_linear_24_5100)"/>
</g>
<defs>
<linearGradient id="paint0_linear_24_5100" x1="3.5" y1="12" x2="20.5" y2="12" gradientUnits="userSpaceOnUse">
<stop stop-color="#7B40D6"/>
<stop offset="1" stop-color="#248AFE"/>
</linearGradient>
</defs>
</svg>
