<svg width="42" height="42" viewBox="0 0 42 42" fill="none" xmlns="http://www.w3.org/2000/svg">
<g filter="url(#filter0_d_47_12028)">
<g clip-path="url(#clip0_47_12028)">
<g filter="url(#filter1_f_47_12028)">
<circle cx="40.1579" cy="50.5261" r="48.2105" fill="#626262"/>
</g>
<g filter="url(#filter2_f_47_12028)">
<path fill-rule="evenodd" clip-rule="evenodd" d="M18.5171 14.2788C19.8333 13.549 20.9978 13.1451 22.6244 13.6971C24.2872 14.2614 24.9648 15.3642 25.6337 16.7422C25.7067 16.8927 25.78 17.0479 25.855 17.2067C26.4582 18.4849 27.1688 19.9905 28.7229 21.0511C30.0958 21.9881 30.3937 23.0528 30.2319 23.825C30.0634 24.6298 29.3378 25.4236 28.0773 25.6814C26.6695 25.9693 25.32 26.6691 24.1204 27.2911C23.9615 27.3735 23.8052 27.4546 23.6517 27.5331C22.2708 28.2399 21.1443 28.7303 20.124 28.6528C18.6612 28.5417 17.8396 27.9542 16.9436 27.0371C16.7136 26.8016 16.4729 26.5362 16.2131 26.2496C15.4575 25.4163 14.54 24.4044 13.2505 23.4307C11.8109 22.3438 11.3492 20.7515 11.5316 19.3597C11.7194 17.9264 12.5516 16.8569 13.5607 16.6241C15.2069 16.2442 16.526 15.4562 17.6485 14.7858C17.9515 14.6048 18.2402 14.4323 18.5171 14.2788ZM16.8338 13.5303C15.7362 14.1837 14.6622 14.8231 13.2508 15.1488C11.478 15.5579 10.3464 17.3019 10.1036 19.1542C9.8555 21.0478 10.4965 23.2131 12.408 24.6564C13.5785 25.5401 14.3578 26.3996 15.093 27.2103C15.3742 27.5204 15.6489 27.8233 15.9366 28.1178C16.9794 29.1852 18.1035 30.0139 20.0198 30.1594C21.4857 30.2707 22.9536 29.5715 24.2842 28.8905C24.4449 28.8082 24.6043 28.7258 24.7628 28.6439C25.9852 28.012 27.1492 27.4103 28.3533 27.164C30.0475 26.8176 31.3218 25.6666 31.6397 24.1488C31.9644 22.5985 31.2353 20.9631 29.5094 19.7852C28.304 18.9626 27.7669 17.8353 27.1485 16.5373C27.0734 16.3797 26.9971 16.2196 26.9183 16.0573C26.1982 14.5738 25.2904 13.0141 23.0684 12.26C20.9116 11.5281 19.3196 12.1249 17.8431 12.9435C17.498 13.1349 17.1648 13.3332 16.8338 13.5303Z" fill="url(#paint0_linear_47_12028)" fill-opacity="0.6"/>
</g>
<g filter="url(#filter3_f_47_12028)">
<path fill-rule="evenodd" clip-rule="evenodd" d="M23.2505 25.3662C21.9344 26.0959 20.7698 26.4998 19.1432 25.9478C17.4804 25.3835 16.8028 24.2808 16.134 22.9028C16.0609 22.7523 15.9876 22.597 15.9127 22.4382C15.3094 21.1601 14.5988 19.6544 13.0447 18.5939C11.6718 17.6569 11.374 16.5922 11.5357 15.82C11.7043 15.0152 12.4298 14.2213 13.6903 13.9636C15.0982 13.6756 16.4477 12.9759 17.6472 12.3539C17.8061 12.2714 17.9625 12.1904 18.1159 12.1118C19.4968 11.4051 20.6233 10.9147 21.6437 10.9922C23.1064 11.1033 23.9281 11.6907 24.824 12.6079C25.0541 12.8433 25.2947 13.1088 25.5546 13.3953C26.3101 14.2286 27.2277 15.2406 28.5171 16.2142C29.9567 17.3012 30.4185 18.8935 30.2361 20.2853C30.0483 21.7185 29.2161 22.788 28.2069 23.0209C26.5607 23.4008 25.2416 24.1887 24.1192 24.8592C23.8161 25.0402 23.5274 25.2126 23.2505 25.3662ZM24.9338 26.1147C26.0314 25.4612 27.1054 24.8218 28.5168 24.4961C30.2897 24.087 31.4213 22.3431 31.664 20.4908C31.9121 18.5971 31.2711 16.4319 29.3596 14.9886C28.1892 14.1048 27.4098 13.2454 26.6746 12.4347C26.3935 12.1246 26.1187 11.8216 25.8311 11.5272C24.7883 10.4598 23.6641 9.63108 21.7478 9.48554C20.2819 9.37422 18.8141 10.0734 17.4834 10.7545C17.3228 10.8367 17.1633 10.9191 17.0048 11.0011C15.7825 11.633 14.6185 12.2347 13.4143 12.4809C11.7201 12.8274 10.4458 13.9784 10.1279 15.4961C9.80321 17.0464 10.5323 18.6819 12.2582 19.8597C13.4636 20.6823 14.0008 21.8097 14.6192 23.1077C14.6942 23.2653 14.7705 23.4254 14.8493 23.5877C15.5694 25.0712 16.4772 26.6309 18.6992 27.3849C20.8561 28.1169 22.4481 27.52 23.9245 26.7014C24.2697 26.51 24.6028 26.3117 24.9338 26.1147Z" fill="url(#paint1_linear_47_12028)" fill-opacity="0.6"/>
</g>
<g filter="url(#filter4_i_47_12028)">
<circle cx="20.8837" cy="19.6909" r="9.1648" fill="#000126"/>
<circle cx="20.8837" cy="19.6909" r="9.1648" fill="url(#paint2_linear_47_12028)"/>
<circle cx="20.8837" cy="19.6909" r="9.1648" fill="url(#paint3_radial_47_12028)"/>
</g>
<circle cx="20.8837" cy="19.6909" r="8.53323" stroke="url(#paint4_linear_47_12028)" stroke-width="1.26316"/>
<g filter="url(#filter5_f_47_12028)">
<ellipse cx="15.9876" cy="12.7952" rx="3.09258" ry="0.690122" transform="rotate(-35.5079 15.9876 12.7952)" fill="url(#paint5_radial_47_12028)"/>
</g>
<g filter="url(#filter6_f_47_12028)">
<ellipse cx="15.8363" cy="12.6437" rx="1.33877" ry="0.298752" transform="rotate(-35.5079 15.8363 12.6437)" fill="white" fill-opacity="0.6"/>
</g>
<g filter="url(#filter7_d_47_12028)">
<rect x="17.1564" y="15.6125" width="1.75403" height="3.42036" rx="0.877015" fill="url(#paint6_linear_47_12028)"/>
<rect x="17.2616" y="15.7178" width="1.5435" height="3.20983" rx="0.771752" stroke="url(#paint7_linear_47_12028)" stroke-width="0.210526"/>
</g>
<g filter="url(#filter8_d_47_12028)">
<rect x="22.6816" y="15.6127" width="1.75403" height="3.42036" rx="0.877015" fill="url(#paint8_linear_47_12028)"/>
<rect x="22.7869" y="15.7179" width="1.5435" height="3.20983" rx="0.771752" stroke="url(#paint9_linear_47_12028)" stroke-width="0.210526"/>
</g>
<g filter="url(#filter9_d_47_12028)">
<rect x="22.1556" y="19.647" width="0.964716" height="2.63104" rx="0.482358" transform="rotate(90 22.1556 19.647)" fill="url(#paint10_linear_47_12028)"/>
<rect x="22.0503" y="19.7522" width="0.75419" height="2.42052" rx="0.377095" transform="rotate(90 22.0503 19.7522)" stroke="url(#paint11_linear_47_12028)" stroke-width="0.210526"/>
</g>
</g>
<path d="M5.21053 7.36842C5.21053 5.62436 6.62436 4.21053 8.36842 4.21053H33.6316C35.3756 4.21053 36.7895 5.62436 36.7895 7.36842V32.6316C36.7895 34.3756 35.3756 35.7895 33.6316 35.7895H8.36842C6.62436 35.7895 5.21053 34.3756 5.21053 32.6316V7.36842Z" stroke="#E8E9EC" stroke-width="0.421053" shape-rendering="crispEdges"/>
</g>
<defs>
<filter id="filter0_d_47_12028" x="0.789473" y="0.631578" width="40.4211" height="40.4211" filterUnits="userSpaceOnUse" color-interpolation-filters="sRGB">
<feFlood flood-opacity="0" result="BackgroundImageFix"/>
<feColorMatrix in="SourceAlpha" type="matrix" values="0 0 0 0 0 0 0 0 0 0 0 0 0 0 0 0 0 0 127 0" result="hardAlpha"/>
<feOffset dy="0.842105"/>
<feGaussianBlur stdDeviation="2.10526"/>
<feComposite in2="hardAlpha" operator="out"/>
<feColorMatrix type="matrix" values="0 0 0 0 0 0 0 0 0 0 0 0 0 0 0 0 0 0 0.25 0"/>
<feBlend mode="normal" in2="BackgroundImageFix" result="effect1_dropShadow_47_12028"/>
<feBlend mode="normal" in="SourceGraphic" in2="effect1_dropShadow_47_12028" result="shape"/>
</filter>
<filter id="filter1_f_47_12028" x="-33.3158" y="-22.9476" width="146.947" height="146.947" filterUnits="userSpaceOnUse" color-interpolation-filters="sRGB">
<feFlood flood-opacity="0" result="BackgroundImageFix"/>
<feBlend mode="normal" in="SourceGraphic" in2="BackgroundImageFix" result="shape"/>
<feGaussianBlur stdDeviation="12.6316" result="effect1_foregroundBlur_47_12028"/>
</filter>
<filter id="filter2_f_47_12028" x="3.73688" y="5.61347" width="34.2939" height="30.8735" filterUnits="userSpaceOnUse" color-interpolation-filters="sRGB">
<feFlood flood-opacity="0" result="BackgroundImageFix"/>
<feBlend mode="normal" in="SourceGraphic" in2="BackgroundImageFix" result="shape"/>
<feGaussianBlur stdDeviation="3.1579" result="effect1_foregroundBlur_47_12028"/>
</filter>
<filter id="filter3_f_47_12028" x="3.73688" y="3.15803" width="34.2939" height="30.8735" filterUnits="userSpaceOnUse" color-interpolation-filters="sRGB">
<feFlood flood-opacity="0" result="BackgroundImageFix"/>
<feBlend mode="normal" in="SourceGraphic" in2="BackgroundImageFix" result="shape"/>
<feGaussianBlur stdDeviation="3.1579" result="effect1_foregroundBlur_47_12028"/>
</filter>
<filter id="filter4_i_47_12028" x="11.7189" y="10.5261" width="18.3296" height="18.3296" filterUnits="userSpaceOnUse" color-interpolation-filters="sRGB">
<feFlood flood-opacity="0" result="BackgroundImageFix"/>
<feBlend mode="normal" in="SourceGraphic" in2="BackgroundImageFix" result="shape"/>
<feColorMatrix in="SourceAlpha" type="matrix" values="0 0 0 0 0 0 0 0 0 0 0 0 0 0 0 0 0 0 127 0" result="hardAlpha"/>
<feMorphology radius="1.68421" operator="erode" in="SourceAlpha" result="effect1_innerShadow_47_12028"/>
<feOffset/>
<feGaussianBlur stdDeviation="0.842105"/>
<feComposite in2="hardAlpha" operator="arithmetic" k2="-1" k3="1"/>
<feColorMatrix type="matrix" values="0 0 0 0 1 0 0 0 0 1 0 0 0 0 1 0 0 0 0.25 0"/>
<feBlend mode="normal" in2="shape" result="effect1_innerShadow_47_12028"/>
</filter>
<filter id="filter5_f_47_12028" x="7.12226" y="4.59693" width="17.7306" height="16.3966" filterUnits="userSpaceOnUse" color-interpolation-filters="sRGB">
<feFlood flood-opacity="0" result="BackgroundImageFix"/>
<feBlend mode="normal" in="SourceGraphic" in2="BackgroundImageFix" result="shape"/>
<feGaussianBlur stdDeviation="3.1579" result="effect1_foregroundBlur_47_12028"/>
</filter>
<filter id="filter6_f_47_12028" x="11.3641" y="8.46038" width="8.94424" height="8.36666" filterUnits="userSpaceOnUse" color-interpolation-filters="sRGB">
<feFlood flood-opacity="0" result="BackgroundImageFix"/>
<feBlend mode="normal" in="SourceGraphic" in2="BackgroundImageFix" result="shape"/>
<feGaussianBlur stdDeviation="1.68421" result="effect1_foregroundBlur_47_12028"/>
</filter>
<filter id="filter7_d_47_12028" x="14.6301" y="13.0862" width="6.80666" height="8.47304" filterUnits="userSpaceOnUse" color-interpolation-filters="sRGB">
<feFlood flood-opacity="0" result="BackgroundImageFix"/>
<feColorMatrix in="SourceAlpha" type="matrix" values="0 0 0 0 0 0 0 0 0 0 0 0 0 0 0 0 0 0 127 0" result="hardAlpha"/>
<feMorphology radius="0.842105" operator="dilate" in="SourceAlpha" result="effect1_dropShadow_47_12028"/>
<feOffset/>
<feGaussianBlur stdDeviation="0.842105"/>
<feComposite in2="hardAlpha" operator="out"/>
<feColorMatrix type="matrix" values="0 0 0 0 1 0 0 0 0 1 0 0 0 0 1 0 0 0 0.25 0"/>
<feBlend mode="normal" in2="BackgroundImageFix" result="effect1_dropShadow_47_12028"/>
<feBlend mode="normal" in="SourceGraphic" in2="effect1_dropShadow_47_12028" result="shape"/>
</filter>
<filter id="filter8_d_47_12028" x="20.1553" y="13.0864" width="6.80666" height="8.47304" filterUnits="userSpaceOnUse" color-interpolation-filters="sRGB">
<feFlood flood-opacity="0" result="BackgroundImageFix"/>
<feColorMatrix in="SourceAlpha" type="matrix" values="0 0 0 0 0 0 0 0 0 0 0 0 0 0 0 0 0 0 127 0" result="hardAlpha"/>
<feMorphology radius="0.842105" operator="dilate" in="SourceAlpha" result="effect1_dropShadow_47_12028"/>
<feOffset/>
<feGaussianBlur stdDeviation="0.842105"/>
<feComposite in2="hardAlpha" operator="out"/>
<feColorMatrix type="matrix" values="0 0 0 0 1 0 0 0 0 1 0 0 0 0 1 0 0 0 0.25 0"/>
<feBlend mode="normal" in2="BackgroundImageFix" result="effect1_dropShadow_47_12028"/>
<feBlend mode="normal" in="SourceGraphic" in2="effect1_dropShadow_47_12028" result="shape"/>
</filter>
<filter id="filter9_d_47_12028" x="16.9982" y="17.1207" width="7.68367" height="6.01735" filterUnits="userSpaceOnUse" color-interpolation-filters="sRGB">
<feFlood flood-opacity="0" result="BackgroundImageFix"/>
<feColorMatrix in="SourceAlpha" type="matrix" values="0 0 0 0 0 0 0 0 0 0 0 0 0 0 0 0 0 0 127 0" result="hardAlpha"/>
<feMorphology radius="0.842105" operator="dilate" in="SourceAlpha" result="effect1_dropShadow_47_12028"/>
<feOffset/>
<feGaussianBlur stdDeviation="0.842105"/>
<feComposite in2="hardAlpha" operator="out"/>
<feColorMatrix type="matrix" values="0 0 0 0 1 0 0 0 0 1 0 0 0 0 1 0 0 0 0.25 0"/>
<feBlend mode="normal" in2="BackgroundImageFix" result="effect1_dropShadow_47_12028"/>
<feBlend mode="normal" in="SourceGraphic" in2="effect1_dropShadow_47_12028" result="shape"/>
</filter>
<linearGradient id="paint0_linear_47_12028" x1="20.8838" y1="11.9293" x2="20.8838" y2="30.1712" gradientUnits="userSpaceOnUse">
<stop stop-color="white" stop-opacity="0"/>
<stop offset="0.5" stop-color="#0066FF"/>
<stop offset="1" stop-color="#CDE1FF" stop-opacity="0"/>
</linearGradient>
<linearGradient id="paint1_linear_47_12028" x1="20.8838" y1="27.7157" x2="20.8838" y2="9.47379" gradientUnits="userSpaceOnUse">
<stop stop-color="white" stop-opacity="0"/>
<stop stop-color="#FFE203"/>
<stop offset="1" stop-color="#CDE1FF" stop-opacity="0"/>
</linearGradient>
<linearGradient id="paint2_linear_47_12028" x1="13.5168" y1="10.5261" x2="22.4185" y2="23.5059" gradientUnits="userSpaceOnUse">
<stop stop-color="white" stop-opacity="0.8"/>
<stop offset="0.13" stop-color="white" stop-opacity="0.47501"/>
<stop offset="1" stop-opacity="0"/>
</linearGradient>
<radialGradient id="paint3_radial_47_12028" cx="0" cy="0" r="1" gradientUnits="userSpaceOnUse" gradientTransform="translate(11.7189 3.94851) rotate(60.2451) scale(31.0133)">
<stop offset="0.713635" stop-color="#122E4E" stop-opacity="0"/>
<stop offset="1" stop-color="#122E4E" stop-opacity="0"/>
<stop offset="1" stop-color="#FDD053" stop-opacity="0.5"/>
</radialGradient>
<linearGradient id="paint4_linear_47_12028" x1="14.6982" y1="12.9226" x2="27.5225" y2="25.9411" gradientUnits="userSpaceOnUse">
<stop stop-color="white"/>
<stop offset="0.455" stop-color="#51C652" stop-opacity="0"/>
<stop offset="1" stop-color="#122245"/>
</linearGradient>
<radialGradient id="paint5_radial_47_12028" cx="0" cy="0" r="1" gradientUnits="userSpaceOnUse" gradientTransform="translate(15.9876 12.7952) scale(4.03687 0.900847)">
<stop stop-color="white"/>
<stop offset="1" stop-color="white" stop-opacity="0"/>
</radialGradient>
<linearGradient id="paint6_linear_47_12028" x1="18.0334" y1="16.0626" x2="18.0334" y2="18.8079" gradientUnits="userSpaceOnUse">
<stop stop-color="white"/>
<stop offset="1" stop-color="#4D7194"/>
</linearGradient>
<linearGradient id="paint7_linear_47_12028" x1="18.0334" y1="15.6125" x2="18.0334" y2="19.0329" gradientUnits="userSpaceOnUse">
<stop stop-color="#4B798D"/>
<stop offset="1" stop-color="#81D1F3"/>
</linearGradient>
<linearGradient id="paint8_linear_47_12028" x1="23.5587" y1="16.0627" x2="23.5587" y2="18.808" gradientUnits="userSpaceOnUse">
<stop stop-color="white"/>
<stop offset="1" stop-color="#4D7194"/>
</linearGradient>
<linearGradient id="paint9_linear_47_12028" x1="23.5587" y1="15.6127" x2="23.5587" y2="19.033" gradientUnits="userSpaceOnUse">
<stop stop-color="#4B798D"/>
<stop offset="1" stop-color="#81D1F3"/>
</linearGradient>
<linearGradient id="paint10_linear_47_12028" x1="21.9802" y1="21.049" x2="23.0326" y2="21.049" gradientUnits="userSpaceOnUse">
<stop stop-color="white"/>
<stop offset="1" stop-color="#4D7194"/>
</linearGradient>
<linearGradient id="paint11_linear_47_12028" x1="22.1556" y1="20.9625" x2="23.1203" y2="20.9625" gradientUnits="userSpaceOnUse">
<stop stop-color="#4B798D"/>
<stop offset="1" stop-color="#81D1F3"/>
</linearGradient>
<clipPath id="clip0_47_12028">
<path d="M5 7.36842C5 5.50809 6.50809 4 8.36842 4H33.6316C35.4919 4 37 5.50809 37 7.36842V32.6316C37 34.4919 35.4919 36 33.6316 36H8.36842C6.50809 36 5 34.4919 5 32.6316V7.36842Z" fill="white"/>
</clipPath>
</defs>
</svg>
