<svg width="32" height="32" viewBox="0 0 32 32" fill="none" xmlns="http://www.w3.org/2000/svg">
<path fill-rule="evenodd" clip-rule="evenodd" d="M8.1999 0H18.8985L27.966 9.45128V27.8341C27.966 30.1369 26.1029 32 23.8081 32H8.1999C5.89706 32 4.034 30.1369 4.034 27.8341V4.1659C4.03396 1.86306 5.89702 0 8.1999 0Z" fill="#E5252A"/>
<path opacity="0.302" fill-rule="evenodd" clip-rule="evenodd" d="M18.8905 0V9.37931H27.966L18.8905 0Z" fill="white"/>
<path d="M8.66364 23.8761V18.031H11.1504C11.7661 18.031 12.2539 18.1989 12.6217 18.5428C12.9895 18.8786 13.1734 19.3344 13.1734 19.9021C13.1734 20.4698 12.9895 20.9256 12.6217 21.2614C12.2539 21.6052 11.7661 21.7731 11.1504 21.7731H10.1589V23.8761H8.66364ZM10.1589 20.5018H10.9825C11.2064 20.5018 11.3823 20.4538 11.5022 20.3419C11.6222 20.2379 11.6862 20.094 11.6862 19.9021C11.6862 19.7102 11.6222 19.5663 11.5022 19.4623C11.3823 19.3504 11.2064 19.3024 10.9825 19.3024H10.1589V20.5018ZM13.7891 23.8761V18.031H15.86C16.2678 18.031 16.6516 18.087 17.0114 18.2069C17.3713 18.3268 17.6991 18.4948 17.987 18.7267C18.2748 18.9505 18.5067 19.2544 18.6746 19.6382C18.8345 20.022 18.9225 20.4618 18.9225 20.9575C18.9225 21.4453 18.8346 21.8851 18.6746 22.2689C18.5067 22.6527 18.2748 22.9565 17.987 23.1804C17.6991 23.4123 17.3713 23.5802 17.0114 23.7002C16.6516 23.8201 16.2678 23.8761 15.86 23.8761H13.7891ZM15.2523 22.6047H15.6841C15.916 22.6047 16.1319 22.5808 16.3318 22.5248C16.5237 22.4688 16.7076 22.3808 16.8835 22.2609C17.0514 22.141 17.1874 21.973 17.2833 21.7492C17.3793 21.5253 17.4273 21.2614 17.4273 20.9575C17.4273 20.6457 17.3793 20.3818 17.2833 20.158C17.1874 19.9341 17.0514 19.7662 16.8835 19.6462C16.7076 19.5263 16.5237 19.4383 16.3318 19.3824C16.1319 19.3264 15.916 19.3024 15.6841 19.3024H15.2523V22.6047ZM19.6741 23.8761V18.031H23.8321V19.3024H21.1694V20.2379H23.2963V21.5013H21.1694V23.8761H19.6741Z" fill="white"/>
</svg>
